<svg width="95" height="211" viewBox="0 0 95 211" fill="none" xmlns="http://www.w3.org/2000/svg">
<path d="M61 29.8998C50.5798 37.7892 31.4943 58.6915 38.5142 79.1855C47.2892 104.803 50.0313 128.471 44.2728 144.9" stroke="#A57D7D" stroke-width="6" stroke-linecap="round"/>
<path d="M1.50654 115.657C12.3674 112.687 36.3669 110.374 45.4778 124.879C54.5887 139.385 19.9598 124.775 1.50654 115.657Z" fill="#B6F3B1"/>
<path d="M1.50654 115.657C12.3674 112.687 36.3669 110.374 45.4778 124.879M1.50654 115.657C19.9598 124.775 54.5887 139.385 45.4778 124.879M1.50654 115.657C5.21098 116.041 10.2749 116.66 15.6912 117.47M45.4778 124.879C44.2227 124.1 42.4244 123.348 40.2487 122.633M13.7534 115.753L15.6912 117.47M15.6912 117.47C17.6925 117.77 19.7418 118.095 21.7885 118.444M17.6506 120.844L21.7885 118.444M21.7885 118.444C24.5298 118.912 27.2662 119.422 29.8758 119.969M24.8962 115.691L29.8758 119.969M29.8758 119.969C33.745 120.781 37.3352 121.675 40.2487 122.633M32.806 124.882L40.2487 122.633" stroke="#138432"/>
<path d="M4.79381 88.4873C14.1645 85.925 34.871 83.9291 42.7318 96.4444C50.5926 108.96 20.7151 96.3544 4.79381 88.4873Z" fill="#B6F3B1"/>
<path d="M4.79381 88.4873C14.1645 85.925 34.871 83.9291 42.7318 96.4444M4.79381 88.4873C20.7151 96.3544 50.5926 108.96 42.7318 96.4444M4.79381 88.4873C7.98997 88.8188 12.3591 89.3531 17.0322 90.0519M42.7318 96.4444C41.6489 95.7715 40.0974 95.1233 38.2202 94.506M15.3603 88.5701L17.0322 90.0519M17.0322 90.0519C18.7589 90.3101 20.5271 90.5908 22.2929 90.892M18.7228 92.9625L22.2929 90.892M22.2929 90.892C24.6581 91.2954 26.8378 92.4901 29.0893 92.9625M26.3104 88.5701L29.0893 92.9625M29.0893 92.9625C32.4277 93.6628 35.7065 93.6794 38.2202 94.506M31.7987 96.4464L38.2202 94.506" stroke="#138432"/>
<path d="M4.72443 59.0955C21.6967 58.1932 30.0202 55.2619 36.6313 65.7875C43.2424 76.3132 18.1147 65.7119 4.72443 59.0955Z" fill="#B6F3B1"/>
<path d="M4.72443 59.0955C21.6967 58.1932 30.0202 55.2619 36.6313 65.7875M4.72443 59.0955C18.1147 65.7119 43.2424 76.3132 36.6313 65.7875M4.72443 59.0955C7.41248 59.3742 11.087 59.8236 15.0172 60.4113M36.6313 65.7875C35.7206 65.2216 34.4157 64.6765 32.8369 64.1573M13.6111 59.1651L15.0172 60.4113M15.0172 60.4113C16.4694 60.6285 17.9565 60.8646 19.4417 61.1179M16.4391 62.8592L19.4417 61.1179M19.4417 61.1179C21.4308 61.4571 23.4164 61.8274 25.31 62.2246M21.6967 59.12L25.31 62.2246M25.31 62.2246C28.1176 62.8137 30.7228 63.4621 32.8369 64.1573M27.4363 65.7892L32.8369 64.1573" stroke="#138432"/>
<path d="M90.1634 95.9184C84.3519 105.562 68.5781 123.797 51.9745 119.586C35.3708 115.374 70.5155 102.053 90.1634 95.9184Z" fill="#B6F3B1"/>
<path d="M90.1634 95.9184C84.3519 105.562 68.5781 123.797 51.9745 119.586M90.1634 95.9184C70.5155 102.053 35.3708 115.374 51.9745 119.586M90.1634 95.9184C87.2171 98.1966 83.1247 101.243 78.6456 104.394M51.9745 119.586C53.421 119.284 55.241 118.587 57.3094 117.603M81.2333 104.3L78.6456 104.394M78.6456 104.394C76.9907 105.558 75.2829 106.737 73.5607 107.897M74.8997 103.304L73.5607 107.897M73.5607 107.897C71.254 109.45 68.9214 110.969 66.6549 112.373M73.2113 112.034L66.6549 112.373M66.6549 112.373C63.2944 114.456 60.0792 116.286 57.3094 117.603M61.1443 110.84L57.3094 117.603" stroke="#138432"/>
<path d="M78.39 69.0593C73.3759 77.38 59.7665 93.113 45.441 89.4791C31.1155 85.8453 61.438 74.3518 78.39 69.0593Z" fill="#B6F3B1"/>
<path d="M78.39 69.0593C73.3759 77.38 59.7665 93.113 45.441 89.4791M78.39 69.0593C61.438 74.3518 31.1155 85.8453 45.441 89.4791M78.39 69.0593C75.848 71.0249 72.3171 73.6531 68.4526 76.3719M45.441 89.4791C46.689 89.2189 48.2593 88.6174 50.0439 87.7689M70.6852 76.2907L68.4526 76.3719M68.4526 76.3719C67.0247 77.3765 65.5513 78.3935 64.0653 79.3941M65.2206 75.432L64.0653 79.3941M64.0653 79.3941C62.0752 80.7341 60.0626 82.0447 58.1071 83.2564M63.7639 82.9635L58.1071 83.2564M58.1071 83.2564C55.2076 85.0531 52.4336 86.6325 50.0439 87.7689M53.3526 81.9334L50.0439 87.7689" stroke="#138432"/>
<path d="M70.6538 42.7562C66.4368 49.7541 54.9909 62.986 42.9428 59.9298C30.8946 56.8736 56.3967 47.2073 70.6538 42.7562Z" fill="#B6F3B1"/>
<path d="M70.6538 42.7562C66.4368 49.7541 54.9909 62.986 42.9428 59.9298M70.6538 42.7562C56.3967 47.2073 30.8946 56.8736 42.9428 59.9298M70.6538 42.7562C68.5159 44.4093 65.5463 46.6196 62.2961 48.9063M42.9428 59.9298C43.9924 59.7109 45.313 59.2051 46.814 58.4914M64.1738 48.838L62.2961 48.9063M62.2961 48.9063C61.0952 49.7512 59.8561 50.6065 58.6064 51.448M59.578 48.1157L58.6064 51.448M58.6064 51.448C56.9326 52.575 55.24 53.6772 53.5953 54.6963M58.3529 54.45L53.5953 54.6963M53.5953 54.6963C51.1568 56.2074 48.8238 57.5357 46.814 58.4914M49.5967 53.5836L46.814 58.4914" stroke="#138432"/>
<g filter="url(#filter0_d_217_3874)">
<path d="M64.3225 22.5108C64.9588 24.209 58.6725 24.7328 51.8263 27.4253C44.9801 30.1177 38.9144 30.9238 38.2781 29.2256C37.6419 27.5275 42.676 23.9682 49.5223 21.2758C56.3685 18.5833 63.6863 20.8127 64.3225 22.5108Z" fill="#F46161"/>
<path d="M66.1283 23.3345C66.7645 25.0327 60.4783 25.5565 53.6321 28.249C46.7859 30.9414 40.7201 31.7475 40.0839 30.0493C39.4476 28.3512 44.4818 24.7919 51.328 22.0995C58.1742 19.407 65.492 21.6364 66.1283 23.3345Z" fill="#F46161"/>
<path d="M51.3001 26.0206C48.0472 27.2999 45.0181 28.1248 42.7376 28.4504C43.0246 28.2099 43.36 27.952 43.7451 27.6797C45.6547 26.3296 48.5098 24.8194 51.8543 23.5041C54.9864 22.2723 58.2541 22.1604 60.8111 22.5609C61.1521 22.6143 61.4772 22.6764 61.7845 22.745C61.4211 22.8674 60.9898 22.9998 60.4856 23.1458C60.0125 23.2827 59.4909 23.4273 58.9299 23.5829C56.7914 24.1757 54.0798 24.9274 51.3001 26.0206Z" stroke="#FBFF4E" stroke-width="3"/>
</g>
<g filter="url(#filter1_d_217_3874)">
<path d="M66.3831 23.9705C65.2435 25.3653 61.7424 19.9907 56.1192 15.1682C50.496 10.3457 46.8613 5.30565 48.0009 3.91086C49.1405 2.51607 54.6228 5.29476 60.2461 10.1172C65.8693 14.9397 67.5227 22.5758 66.3831 23.9705Z" fill="#F46161"/>
<path d="M66.5577 25.9877C65.4181 27.3825 61.917 22.0079 56.2938 17.1854C50.6706 12.3629 47.0359 7.32283 48.1755 5.92804C49.3151 4.53325 54.7975 7.31194 60.4207 12.1344C66.0439 16.9569 67.6973 24.5929 66.5577 25.9877Z" fill="#F46161"/>
<path d="M50.8543 7.54678C51.1893 7.68441 51.5596 7.85443 51.9635 8.05916C54.0457 9.11448 56.7232 10.939 59.4716 13.296C62.0492 15.5066 63.7345 18.3829 64.6358 20.8692C64.7503 21.1851 64.8511 21.4917 64.9389 21.7869C64.6612 21.5235 64.3438 21.2063 63.9816 20.8333C63.6345 20.4759 63.2575 20.0788 62.852 19.6518C61.3073 18.0249 59.35 15.9635 57.0682 14.0066C54.4103 11.7272 52.2427 9.42703 50.8543 7.54678Z" stroke="#FBFF4E" stroke-width="3"/>
</g>
<g filter="url(#filter2_d_217_3874)">
<path d="M65.0173 24.3296C63.5631 23.2861 68.4892 19.251 72.6961 13.0972C76.903 6.94337 81.4923 2.80062 82.9465 3.84411C84.4007 4.8876 82.1692 10.7222 77.9623 16.876C73.7554 23.0298 66.4715 25.3731 65.0173 24.3296Z" fill="#F46161"/>
<path d="M63.0707 24.681C61.6164 23.6375 66.5425 19.6024 70.7494 13.4486C74.9564 7.29479 79.5456 3.15204 80.9998 4.19553C82.4541 5.23902 80.2226 11.0736 76.0156 17.2274C71.8087 23.3813 64.5249 25.7245 63.0707 24.681Z" fill="#F46161"/>
<path d="M79.64 7.09496C79.5365 7.43912 79.4066 7.81927 79.248 8.23388C78.3996 10.4522 76.854 13.3438 74.7969 16.3529C72.8651 19.1787 70.2089 21.1481 67.8668 22.2825C67.583 22.4199 67.3063 22.5439 67.0386 22.6548C67.2688 22.3523 67.5458 22.0065 67.8711 21.6124C68.1892 21.2272 68.5432 20.808 68.9238 20.3572C70.3733 18.6408 72.2086 16.4675 73.9148 13.9717C75.8935 11.0772 77.9344 8.6756 79.64 7.09496Z" stroke="#FBFF4E" stroke-width="3"/>
</g>
<g filter="url(#filter3_d_217_3874)">
<path d="M63.6374 24.0606C65.374 24.439 62.3784 30.1252 60.8528 37.474C59.3273 44.8227 56.6828 50.4732 54.9462 50.0948C53.2097 49.7164 53.0386 43.4524 54.5641 36.1037C56.0897 28.7549 61.9008 23.6822 63.6374 24.0606Z" fill="#F46161"/>
<path d="M65.2953 22.9578C67.0318 23.3362 64.0363 29.0225 62.5107 36.3712C60.9852 43.7199 58.3407 49.3705 56.6041 48.9921C54.8675 48.6137 54.6965 42.3496 56.222 35.0009C57.7475 27.6522 63.5587 22.5794 65.2953 22.9578Z" fill="#F46161"/>
<path d="M56.7553 45.744C56.7216 45.3967 56.6978 45.0094 56.6862 44.5827C56.6211 42.1982 56.9413 38.9153 57.6876 35.3203C58.3894 31.9395 60.0862 29.0594 61.811 27.076C62.0086 26.8488 62.2049 26.6352 62.3984 26.4355C62.3026 26.8013 62.1816 27.2228 62.0357 27.7046C61.8897 28.187 61.7237 28.715 61.5451 29.2825C60.8655 31.4426 60.0056 34.1759 59.3872 37.1546C58.6737 40.5919 57.7177 43.6061 56.7553 45.744Z" stroke="#FBFF4E" stroke-width="3"/>
</g>
<g filter="url(#filter4_d_217_3874)">
<path d="M63.3756 23.1348C64.0613 21.457 68.9578 25.5297 75.722 28.4317C82.4862 31.3336 87.4137 35.0463 86.7279 36.7241C86.0421 38.4018 80.0028 37.4095 73.2386 34.5075C66.4745 31.6055 62.6898 24.8126 63.3756 23.1348Z" fill="#F46161"/>
<path d="M62.6262 21.2608C63.312 19.5831 68.2085 23.6558 74.9727 26.5577C81.7368 29.4597 86.6643 33.1723 85.9785 34.8501C85.2928 36.5279 79.2534 35.5355 72.4893 32.6335C65.7251 29.7316 61.9405 22.9386 62.6262 21.2608Z" fill="#F46161"/>
<path d="M75.1545 29.8202C78.3671 31.1985 81.112 32.7466 82.9799 34.1258C82.611 34.0964 82.1956 34.0453 81.7348 33.9696C79.4437 33.5931 76.3613 32.6628 73.0568 31.2451C69.9618 29.9172 67.5244 27.6839 65.9466 25.5837C65.7369 25.3046 65.5444 25.0306 65.3691 24.7642C65.714 24.933 66.1146 25.1425 66.5768 25.3936C67.0111 25.6296 67.4857 25.8945 67.9961 26.1794C69.9415 27.2652 72.4082 28.6419 75.1545 29.8202Z" stroke="#FBFF4E" stroke-width="3"/>
</g>
<path fill-rule="evenodd" clip-rule="evenodd" d="M47.6861 136.281H30.7356C19.973 136.281 11.9191 146.156 14.0827 156.699L22.3892 197.175C24.0119 205.081 30.9707 210.757 39.0422 210.757H47.6861H56.3299C64.4015 210.757 71.3602 205.081 72.9829 197.175L81.2894 156.699C83.4531 146.156 75.3991 136.281 64.6365 136.281H47.6861Z" fill="#634D26"/>
<path d="M83.1106 146.123C84.0933 140.805 80.0113 135.9 74.6039 135.9C70.4113 135.9 66.8223 138.906 66.0872 143.034L55.7708 200.957C54.8475 206.141 58.8336 210.9 64.0991 210.9C68.1781 210.9 71.6762 207.989 72.4175 203.978L83.1106 146.123Z" fill="#3C2B11"/>
<path d="M12.6213 135.9C8.73777 135.9 5.87737 139.533 6.78896 143.308L9.20373 153.308C9.85421 156.002 12.2649 157.9 15.0361 157.9H80.1653C82.9611 157.9 85.3864 155.969 86.0127 153.244L88.3116 143.244C89.1757 139.486 86.3206 135.9 82.4642 135.9H12.6213Z" fill="#6F5735"/>
<path d="M57.6279 192.9L66 193.445V210.9L54 210.627L57.6279 192.9Z" fill="#3C2B11"/>
<path d="M65.9657 136.281H83.79C87.1037 136.281 89.2604 138.915 88.6071 142.164L86.5878 152.205C85.9346 155.454 82.7187 158.088 79.405 158.088H61.5807L65.9657 136.281Z" fill="#8B6939"/>
<defs>
<filter id="filter0_d_217_3874" x="34.2239" y="20.0219" width="35.9489" height="18.9169" filterUnits="userSpaceOnUse" color-interpolation-filters="sRGB">
<feFlood flood-opacity="0" result="BackgroundImageFix"/>
<feColorMatrix in="SourceAlpha" type="matrix" values="0 0 0 0 0 0 0 0 0 0 0 0 0 0 0 0 0 0 127 0" result="hardAlpha"/>
<feOffset dy="4"/>
<feGaussianBlur stdDeviation="2"/>
<feComposite in2="hardAlpha" operator="out"/>
<feColorMatrix type="matrix" values="0 0 0 0 0 0 0 0 0 0 0 0 0 0 0 0 0 0 0.25 0"/>
<feBlend mode="normal" in2="BackgroundImageFix" result="effect1_dropShadow_217_3874"/>
<feBlend mode="normal" in="SourceGraphic" in2="effect1_dropShadow_217_3874" result="shape"/>
</filter>
<filter id="filter1_d_217_3874" x="43.7919" y="3.55066" width="27.1051" height="30.6614" filterUnits="userSpaceOnUse" color-interpolation-filters="sRGB">
<feFlood flood-opacity="0" result="BackgroundImageFix"/>
<feColorMatrix in="SourceAlpha" type="matrix" values="0 0 0 0 0 0 0 0 0 0 0 0 0 0 0 0 0 0 127 0" result="hardAlpha"/>
<feOffset dy="4"/>
<feGaussianBlur stdDeviation="2"/>
<feComposite in2="hardAlpha" operator="out"/>
<feColorMatrix type="matrix" values="0 0 0 0 0 0 0 0 0 0 0 0 0 0 0 0 0 0 0.25 0"/>
<feBlend mode="normal" in2="BackgroundImageFix" result="effect1_dropShadow_217_3874"/>
<feBlend mode="normal" in="SourceGraphic" in2="effect1_dropShadow_217_3874" result="shape"/>
</filter>
<filter id="filter2_d_217_3874" x="58.8104" y="3.68323" width="28.5806" height="29.2374" filterUnits="userSpaceOnUse" color-interpolation-filters="sRGB">
<feFlood flood-opacity="0" result="BackgroundImageFix"/>
<feColorMatrix in="SourceAlpha" type="matrix" values="0 0 0 0 0 0 0 0 0 0 0 0 0 0 0 0 0 0 127 0" result="hardAlpha"/>
<feOffset dy="4"/>
<feGaussianBlur stdDeviation="2"/>
<feComposite in2="hardAlpha" operator="out"/>
<feColorMatrix type="matrix" values="0 0 0 0 0 0 0 0 0 0 0 0 0 0 0 0 0 0 0.25 0"/>
<feBlend mode="normal" in2="BackgroundImageFix" result="effect1_dropShadow_217_3874"/>
<feBlend mode="normal" in="SourceGraphic" in2="effect1_dropShadow_217_3874" result="shape"/>
</filter>
<filter id="filter3_d_217_3874" x="49.5231" y="22.938" width="20.2977" height="35.1748" filterUnits="userSpaceOnUse" color-interpolation-filters="sRGB">
<feFlood flood-opacity="0" result="BackgroundImageFix"/>
<feColorMatrix in="SourceAlpha" type="matrix" values="0 0 0 0 0 0 0 0 0 0 0 0 0 0 0 0 0 0 127 0" result="hardAlpha"/>
<feOffset dy="4"/>
<feGaussianBlur stdDeviation="2"/>
<feComposite in2="hardAlpha" operator="out"/>
<feColorMatrix type="matrix" values="0 0 0 0 0 0 0 0 0 0 0 0 0 0 0 0 0 0 0.25 0"/>
<feBlend mode="normal" in2="BackgroundImageFix" result="effect1_dropShadow_217_3874"/>
<feBlend mode="normal" in="SourceGraphic" in2="effect1_dropShadow_217_3874" result="shape"/>
</filter>
<filter id="filter4_d_217_3874" x="58.5466" y="20.8688" width="32.245" height="24.6713" filterUnits="userSpaceOnUse" color-interpolation-filters="sRGB">
<feFlood flood-opacity="0" result="BackgroundImageFix"/>
<feColorMatrix in="SourceAlpha" type="matrix" values="0 0 0 0 0 0 0 0 0 0 0 0 0 0 0 0 0 0 127 0" result="hardAlpha"/>
<feOffset dy="4"/>
<feGaussianBlur stdDeviation="2"/>
<feComposite in2="hardAlpha" operator="out"/>
<feColorMatrix type="matrix" values="0 0 0 0 0 0 0 0 0 0 0 0 0 0 0 0 0 0 0.25 0"/>
<feBlend mode="normal" in2="BackgroundImageFix" result="effect1_dropShadow_217_3874"/>
<feBlend mode="normal" in="SourceGraphic" in2="effect1_dropShadow_217_3874" result="shape"/>
</filter>
</defs>
</svg>
