<svg width="185" height="221" viewBox="0 0 185 221" fill="none" xmlns="http://www.w3.org/2000/svg">
<g filter="url(#filter0_i_217_3898)">
<rect x="83.9999" y="70.8998" width="16" height="101" fill="#4A3516"/>
</g>
<path d="M77.1259 103.294C74.8145 95.0755 77.5216 74.776 98.9568 68.7061C120.392 62.6363 140.89 73.363 153.316 81.7188C145.415 100.255 135.131 115.041 113.696 121.111C92.2607 127.181 79.4373 111.512 77.1259 103.294Z" fill="#489625"/>
<path d="M79.5626 69.955C74.3692 76.7199 56.5193 86.6526 38.8748 73.0147C21.2303 59.3768 17.5781 36.4712 16.8462 21.4799C36.3849 16.782 54.3465 16.2395 71.991 29.8774C89.6355 43.5153 84.7559 63.1902 79.5626 69.955Z" fill="#61B63C"/>
<path d="M103.794 72.7933C98.9256 65.7893 94.8523 45.7208 113.121 32.9367C131.389 20.1525 154.259 23.5453 168.728 27.3529C167.318 47.4634 162.432 64.8151 144.164 77.5993C125.895 90.3834 108.662 79.7974 103.794 72.7933Z" fill="#60BD37"/>
<path d="M93.8512 91.4771C85.4496 92.5954 65.7759 86.1478 62.5372 61.6497C59.2985 37.1516 72.5055 16.5629 82.3395 4.40016C99.6078 16.2289 112.873 30.0207 116.112 54.5188C119.35 79.0168 102.253 90.3588 93.8512 91.4771Z" fill="#91DF6F"/>
<path d="M90.4419 115.186C86.1868 122.581 69.8044 134.797 50.5159 123.623C31.2274 112.449 24.5853 90.2302 21.882 75.4681C40.629 68.2162 58.3609 65.2925 77.6495 76.4666C96.938 87.6407 94.697 107.791 90.4419 115.186Z" fill="#3B8918"/>
<path fill-rule="evenodd" clip-rule="evenodd" d="M92.6861 146.281H75.7356C64.973 146.281 56.9191 156.156 59.0827 166.699L67.3892 207.175C69.0119 215.081 75.9707 220.757 84.0422 220.757H92.6861H101.33C109.401 220.757 116.36 215.081 117.983 207.175L126.289 166.699C128.453 156.156 120.399 146.281 109.636 146.281H92.6861Z" fill="#634D26"/>
<path fill-rule="evenodd" clip-rule="evenodd" d="M92.4805 162.594C92.4805 153.217 84.8793 145.616 75.5028 145.616C64.7543 145.616 56.7109 155.478 58.8717 166.007L67.9383 210.186C69.1217 215.953 74.1965 220.092 80.0829 220.092C86.9299 220.092 92.4805 214.541 92.4805 207.694V162.594ZM92.4806 162.594C92.4806 153.217 100.082 145.616 109.458 145.616C120.207 145.616 128.25 155.478 126.089 166.007L117.023 210.186C115.839 215.953 110.765 220.092 104.878 220.092C98.0312 220.092 92.4806 214.541 92.4806 207.694V162.594Z" fill="#634D26"/>
<path d="M57.7069 145.9C53.7965 145.9 50.9311 149.58 51.8901 153.371L54.1669 162.371C54.8406 165.034 57.2367 166.9 59.9837 166.9H125.216C127.988 166.9 130.4 165 131.049 162.305L133.217 153.305C134.126 149.53 131.265 145.9 127.383 145.9H57.7069Z" fill="#6F5735"/>
<path fill-rule="evenodd" clip-rule="evenodd" d="M119.605 145.616C125.144 145.616 129.315 150.656 128.28 156.098L117.444 213.068C116.77 216.613 113.987 219.305 110.544 219.946V220.092L109.583 220.069C109.376 220.084 109.168 220.092 108.959 220.092C108.608 220.092 108.262 220.071 107.923 220.031L98.5942 219.814L100.324 211.163C100.339 210.745 100.385 210.323 100.463 209.897L110.918 152.855C111.687 148.662 115.341 145.616 119.605 145.616Z" fill="#3C2B11"/>
<path d="M110.76 145.616H128.585C131.898 145.616 134.055 148.25 133.402 151.498L131.382 161.54C130.729 164.789 127.513 167.422 124.2 167.422H106.375L110.76 145.616Z" fill="#8B6939"/>
<defs>
<filter id="filter0_i_217_3898" x="83.9999" y="70.8998" width="16" height="101" filterUnits="userSpaceOnUse" color-interpolation-filters="sRGB">
<feFlood flood-opacity="0" result="BackgroundImageFix"/>
<feBlend mode="normal" in="SourceGraphic" in2="BackgroundImageFix" result="shape"/>
<feColorMatrix in="SourceAlpha" type="matrix" values="0 0 0 0 0 0 0 0 0 0 0 0 0 0 0 0 0 0 127 0" result="hardAlpha"/>
<feOffset dx="13"/>
<feComposite in2="hardAlpha" operator="arithmetic" k2="-1" k3="1"/>
<feColorMatrix type="matrix" values="0 0 0 0 0.384314 0 0 0 0 0.290196 0 0 0 0 0.141176 0 0 0 1 0"/>
<feBlend mode="normal" in2="shape" result="effect1_innerShadow_217_3898"/>
</filter>
</defs>
</svg>
