<svg width="102" height="123" viewBox="0 0 102 123" fill="none" xmlns="http://www.w3.org/2000/svg">
<g filter="url(#filter0_i_72_4060)">
<rect x="46.4362" y="39.2971" width="8.86818" height="55.9804" fill="#4A3516"/>
</g>
<path d="M42.6259 57.2518C41.3448 52.6968 42.8452 41.4455 54.7259 38.0813C66.6066 34.717 77.9679 40.6624 84.8552 45.2937C80.4757 55.5674 74.7759 63.7629 62.8952 67.1272C51.0145 70.4915 43.907 61.8068 42.6259 57.2518Z" fill="#489625"/>
<path d="M43.9765 38.7733C41.098 42.5228 31.2045 48.0282 21.4249 40.4692C11.6452 32.9102 9.62089 20.2145 9.21523 11.9055C20.0448 9.30162 30.0002 9.0009 39.7799 16.5599C49.5596 24.1188 46.855 35.0238 43.9765 38.7733Z" fill="#61B63C"/>
<path d="M57.4071 40.3465C54.7088 36.4644 52.4512 25.3412 62.5766 18.2555C72.7021 11.1697 85.3779 13.0502 93.3975 15.1606C92.6159 26.3071 89.9081 35.9245 79.7826 43.0102C69.6571 50.096 60.1054 44.2286 57.4071 40.3465Z" fill="#60BD37"/>
<path d="M51.8964 50.7022C47.2397 51.322 36.3353 47.7483 34.5403 34.17C32.7452 20.5917 40.0653 9.18014 45.5159 2.43879C55.087 8.99501 62.4394 16.6393 64.2345 30.2176C66.0296 43.7959 56.5531 50.0824 51.8964 50.7022Z" fill="#91DF6F"/>
<path d="M50.0068 63.843C47.6483 67.9419 38.5682 74.7129 27.8773 68.5195C17.1865 62.3261 13.505 50.0111 12.0067 41.829C22.3974 37.8096 32.2255 36.1891 42.9164 42.3825C53.6073 48.5758 52.3652 59.7441 50.0068 63.843Z" fill="#3B8918"/>
<path fill-rule="evenodd" clip-rule="evenodd" d="M51.2503 90.4883C51.2503 85.2913 47.0373 81.0782 41.8402 81.0782C35.8827 81.0782 31.4246 86.5442 32.6222 92.3801L37.6475 116.867C38.3034 120.063 41.1162 122.357 44.3788 122.357C48.1738 122.357 51.2503 119.281 51.2503 115.486V90.4883ZM51.2505 90.4883C51.2505 85.2913 55.4635 81.0782 60.6606 81.0782C66.618 81.0782 71.0762 86.5442 69.8785 92.3801L64.8532 116.867C64.1974 120.063 61.3846 122.357 58.122 122.357C54.327 122.357 51.2505 119.281 51.2505 115.486V90.4883Z" fill="#634D26"/>
<path fill-rule="evenodd" clip-rule="evenodd" d="M51.1363 80.7096C40.3737 80.7096 32.2154 90.5843 34.379 101.127L36.1522 109.767C37.6122 116.882 43.8736 121.988 51.1363 121.988H51.1363C58.399 121.988 64.6604 116.882 66.1205 109.767L67.8936 101.127C70.0573 90.5843 61.899 80.7096 51.1363 80.7096H51.1363Z" fill="#634D26"/>
<path d="M35.0664 80.8668C31.2735 80.8668 28.4942 84.4368 29.4244 88.1138C30.0778 90.6969 32.402 92.5063 35.0664 92.5063H67.3155C70.0048 92.5063 72.3438 90.6637 72.9735 88.0492C73.8551 84.3884 71.0809 80.8668 67.3155 80.8668H35.0664Z" fill="#6F5735"/>
<path fill-rule="evenodd" clip-rule="evenodd" d="M66.1703 80.7095C69.2403 80.7095 71.5526 83.503 70.9789 86.519L64.9728 118.096C64.5991 120.06 63.0565 121.553 61.148 121.908V121.988L60.617 121.976C60.5022 121.984 60.3863 121.988 60.2697 121.988C60.0745 121.988 59.8825 121.977 59.6941 121.954L54.5249 121.834L55.4839 117.039C55.4923 116.808 55.5175 116.574 55.5607 116.338L61.3556 84.7219C61.7816 82.3976 63.8073 80.7095 66.1703 80.7095Z" fill="#3C2B11"/>
<path d="M61.2682 80.7095H68.4731C71.7868 80.7095 73.9435 83.3431 73.2902 86.5918L73.2255 86.9136C72.5722 90.1622 69.3563 92.7958 66.0426 92.7958H58.8378L61.2682 80.7095Z" fill="#8B6939"/>
<defs>
</defs>
</svg>
