<svg width="84" height="88" viewBox="0 0 84 88" fill="none" xmlns="http://www.w3.org/2000/svg">
<path d="M6.3 36.3007H74.9L65.572 83.205C46.0913 89.1719 35.0646 88.7629 15.2394 82.0516L6.3 36.3007Z" fill="#634D26"/>
<path d="M69.5988 61.5031L72.8 49.9481C72.0468 50.1966 69.8625 51.029 67.1509 52.3709C63.7614 54.0482 60.3719 53.6755 53.4047 52.3709C46.4374 51.0663 37.0222 52.3709 33.4444 52.3709C29.8667 52.3709 21.9579 52.7436 18.5684 52.3709C15.8568 52.0727 10.6596 49.5132 8.4 48.2708L11.0363 59.6394M69.5988 61.5031C68.1552 62.8077 64.5899 65.4541 61.8784 65.6032C58.4889 65.7896 51.8982 65.7896 48.8854 66.9078C45.8725 68.026 37.0222 68.2124 32.3146 66.9078C27.607 65.6032 26.8538 64.1122 22.7111 64.1122C19.397 64.1122 13.547 61.1303 11.0363 59.6394M69.5988 61.5031L64.138 83.122C56.2292 86.601 35.4028 91.2851 15.3673 82.1902L11.0363 59.6394" stroke="black"/>
<path d="M80.7563 8.43534C80.7108 12.625 63.338 15.8333 41.9531 15.6014C20.5682 15.3694 2.40867 12.625 2.45411 8.43534C2.49956 4.24568 20.7327 0.197288 42.1177 0.429265C63.5026 0.661243 80.8017 4.24569 80.7563 8.43534Z" fill="#8B6939" fill-opacity="0.5"/>
<path d="M0 8.30066C12.7445 17.8817 63.3374 18.6639 84 8.30066L78.2069 34.893C51.5585 45.8428 35.3381 44.4741 2.51036 34.893L0 8.30066Z" fill="#8B6939"/>
</svg>
