<svg width="176" height="282" viewBox="0 0 176 282" fill="none" xmlns="http://www.w3.org/2000/svg">
<g filter="url(#filter0_i_217_3941)">
<path d="M43.545 52.8733C45.8738 81.9512 41.8627 112.45 37.0033 119.632C32.2373 115.258 22.2487 83.8432 19.92 54.7654C17.5912 25.6875 29.5972 27.1568 27.5159 1.1692C34.0782 15.2493 41.2163 23.7954 43.545 52.8733Z" fill="#45671F"/>
</g>
<g filter="url(#filter1_i_217_3941)">
<path d="M96.606 75.1073C91.5841 103.843 80.0687 132.367 73.5665 138.105C70.0467 132.678 68.2373 99.7627 73.2591 71.0272C78.2809 42.2918 70.3576 48.7923 77.8064 14.257C81.8694 33.5561 101.628 46.3719 96.606 75.1073Z" fill="#689F29"/>
</g>
<g filter="url(#filter2_i_217_3941)">
<path d="M100.398 101.166C89.9417 128.399 73.1535 154.175 65.6688 158.554C63.2589 152.551 67.8159 119.903 78.2724 92.6706C88.7289 65.4382 96.9851 79.8581 110.939 47.4011C111.213 67.1214 110.855 73.9338 100.398 101.166Z" fill="#3D5F30"/>
</g>
<g filter="url(#filter3_i_217_3941)">
<path d="M36.0651 141.157C20.4866 116.494 9.86101 87.6264 10.8248 79.0082C17.0775 80.6651 40.5245 103.837 56.1031 128.5C71.6816 153.162 60.3687 157.442 74.2916 179.484C61.9363 170.068 51.6437 165.82 36.0651 141.157Z" fill="#689F28"/>
</g>
<g filter="url(#filter4_i_217_3941)">
<path d="M53.5605 106.467C50.2803 135.453 53.29 166.067 57.9115 173.404C62.8181 169.189 73.8307 138.118 77.1109 109.132C80.3911 80.1464 68.3435 81.2215 71.2751 55.3161C64.255 69.1736 56.8408 77.4813 53.5605 106.467Z" fill="#77B063"/>
</g>
<g filter="url(#filter5_di_217_3941)">
<path d="M37.5304 80.7161C35.2016 109.794 39.2127 140.292 44.0722 147.475C48.8381 143.101 58.8267 111.686 61.1554 82.6082C63.4842 53.5303 64.7137 54.7307 66.7949 28.7432C60.2326 42.8232 39.8591 51.6383 37.5304 80.7161Z" fill="#9DBD69"/>
</g>
<path fill-rule="evenodd" clip-rule="evenodd" d="M23.252 142.505H23.0627L23.0434 142.693C22.1392 151.544 22.1394 165.758 24.4511 179.448C26.7606 193.125 31.3868 206.338 39.7819 213.12L39.7896 213.126L39.7978 213.132C43.7229 215.733 51.203 218.538 59.9971 218.032C68.7913 218.538 76.2713 215.733 80.1964 213.132L80.2047 213.126L80.2124 213.12C88.6075 206.338 93.2337 193.125 95.5432 179.448C97.8549 165.758 97.8551 151.544 96.9508 142.693L96.9315 142.505H96.7423H59.971H59.7628H23.252ZM59.7628 142.925H23.4414C22.5599 151.753 22.576 165.825 24.8645 179.378C27.1709 193.036 31.7757 206.107 40.0371 212.786C43.8961 215.341 51.2923 218.117 59.9952 217.611C59.9958 217.611 59.9965 217.611 59.9971 217.611C59.9978 217.611 59.9984 217.611 59.999 217.61C68.702 218.117 76.0982 215.341 79.9571 212.786C88.2186 206.107 92.8234 193.036 95.1298 179.378C97.4183 165.825 97.4344 151.753 96.5528 142.925H59.971H59.7628Z" fill="#F8ADB2"/>
<path d="M59.7628 142.925H23.4414C22.5599 151.753 22.576 165.825 24.8645 179.378C27.1709 193.036 31.7757 206.107 40.0371 212.786C43.8961 215.341 51.2923 218.117 59.9952 217.611C59.9958 217.611 59.9965 217.611 59.9971 217.611L59.999 217.61C68.702 218.117 76.0982 215.341 79.9571 212.786C88.2186 206.107 92.8234 193.036 95.1298 179.378C97.4183 165.825 97.4344 151.753 96.5528 142.925H59.971H59.7628Z" fill="#F8ADB2"/>
<path fill-rule="evenodd" clip-rule="evenodd" d="M23.252 142.505H23.0627L23.0434 142.693C22.1392 151.544 22.1394 165.758 24.4511 179.448C26.7606 193.125 31.3868 206.338 39.7819 213.12L39.7896 213.126L39.7978 213.132C43.7229 215.733 51.203 218.538 59.9971 218.032C68.7913 218.538 76.2713 215.733 80.1964 213.132L80.2047 213.126L80.2124 213.12C88.6075 206.338 93.2337 193.125 95.5432 179.448C97.8549 165.758 97.8551 151.544 96.9508 142.693L96.9315 142.505H96.7423H59.971H59.7628H23.252ZM59.7628 142.925H23.4414C22.5599 151.753 22.576 165.825 24.8645 179.378C27.1709 193.036 31.7757 206.107 40.0371 212.786C43.8961 215.341 51.2923 218.117 59.9952 217.611C59.9958 217.611 59.9965 217.611 59.9971 217.611C59.9978 217.611 59.9984 217.611 59.999 217.61C68.702 218.117 76.0982 215.341 79.9571 212.786C88.2186 206.107 92.8234 193.036 95.1298 179.378C97.4183 165.825 97.4344 151.753 96.5528 142.925H59.971H59.7628Z" fill="#634D26"/>
<path d="M59.7628 142.925H23.4414C22.5599 151.753 22.576 165.825 24.8645 179.378C27.1709 193.036 31.7757 206.107 40.0371 212.786C43.8961 215.341 51.2923 218.117 59.9952 217.611C59.9958 217.611 59.9965 217.611 59.9971 217.611L59.999 217.61C68.702 218.117 76.0982 215.341 79.9571 212.786C88.2186 206.107 92.8234 193.036 95.1298 179.378C97.4183 165.825 97.4344 151.753 96.5528 142.925H59.971H59.7628Z" fill="#634D26"/>
<mask id="mask0_217_3941" style="mask-type:alpha" maskUnits="userSpaceOnUse" x="40" y="145" width="136" height="137">
<path fill-rule="evenodd" clip-rule="evenodd" d="M41.6217 145.329H41.2812L41.2465 145.669C39.6195 161.593 39.62 187.168 43.7793 211.8C47.9346 236.407 56.2583 260.182 71.3632 272.384L71.3771 272.395L71.3919 272.405C78.4541 277.085 91.9126 282.133 107.735 281.222C123.558 282.133 137.017 277.085 144.079 272.405L144.094 272.395L144.108 272.384C159.213 260.182 167.536 236.407 171.692 211.8C175.851 187.168 175.851 161.593 174.224 145.669L174.19 145.329H173.849H107.689H107.314H41.6217ZM107.314 146.086H41.9626C40.3765 161.97 40.4054 187.289 44.523 211.673C48.6728 236.248 56.9581 259.765 71.8224 271.783C78.7657 276.379 92.0732 281.375 107.732 280.464C107.733 280.464 107.734 280.463 107.735 280.463C107.737 280.463 107.738 280.463 107.739 280.463C123.398 281.375 136.705 276.379 143.649 271.783C158.513 259.765 166.798 236.248 170.948 211.673C175.066 187.289 175.094 161.97 173.508 146.086H107.689H107.314Z" fill="#F8ADB2"/>
<path d="M107.314 146.086H41.9626C40.3765 161.97 40.4054 187.289 44.523 211.673C48.6728 236.248 56.9581 259.765 71.8224 271.783C78.7657 276.379 92.0732 281.375 107.732 280.464C107.733 280.464 107.734 280.463 107.735 280.463L107.739 280.463C123.398 281.375 136.705 276.379 143.649 271.783C158.513 259.765 166.798 236.248 170.948 211.673C175.066 187.289 175.094 161.97 173.508 146.086H107.689H107.314Z" fill="#F8ADB2"/>
</mask>
<g mask="url(#mask0_217_3941)">
<path fill-rule="evenodd" clip-rule="evenodd" d="M33.3992 146.746C31.4128 144.424 29.1249 141.751 28.6343 141.123L33.257 137.503C33.7035 138.074 35.6469 140.342 37.4956 142.5C38.9169 144.159 40.2823 145.753 40.8681 146.459C45.6984 152.284 53.3041 160.845 60.4298 167.16C64.3 162.071 68.14 157.061 71.2146 153.069C70.0967 151.534 68.5663 149.566 67.0106 147.592C66.5296 146.982 66.0446 146.369 65.5725 145.773C63.9663 143.744 62.5106 141.905 61.8763 140.999L66.6826 137.627C67.2087 138.377 68.4846 139.99 70.0483 141.965C70.5477 142.596 71.0764 143.264 71.6193 143.953C73.7687 146.68 76.1354 149.727 77.3203 151.574C81.0683 157.418 85.3718 164.591 87.92 170.273C88.5827 169.663 89.2427 169.037 89.8996 168.393L90.0489 168.247C91.6649 166.664 98.7839 159.69 99.8494 158.523L104.182 162.487C103.116 163.654 97.2802 169.383 94.889 171.726C94.8642 174.97 93.3327 182.537 93.001 189.227C92.6076 197.162 90.7057 204.289 89.8996 208.323L88.9001 207.506C89.6034 203.986 88.5003 196.266 88.9001 188.202C89.098 184.21 88.8061 180.389 88.9001 177.233C88.7971 177.319 88.694 177.406 88.5909 177.492C77.2071 186.988 65.2244 192.19 54.5337 194.816C56.914 197.451 60.1932 200.733 63.7818 203.941C69.3543 208.923 75.1937 213.288 79.1799 214.839L77.0523 220.315C71.9818 218.341 65.4521 213.312 59.8714 208.323C55.0344 203.999 50.5543 199.38 47.9398 196.154C46.9376 196.315 45.952 196.454 44.9849 196.573C37.6679 197.471 27.2413 196.503 22.966 195.865L23.8308 190.054C27.6466 190.623 36.4154 191.424 42.878 190.884C43.2099 190.379 43.5979 189.815 44.0096 189.227C44.976 187.845 46.2574 186.074 47.7487 184.045C50.3095 180.562 53.5169 176.285 56.8707 171.852C50.2412 166.026 43.3037 158.409 38.3575 152.599C36.5097 154.503 34.0632 157.347 31.6477 160.686C28.1203 165.562 24.9358 171.12 23.7301 175.948L18.0352 174.523C19.5129 168.607 23.2158 162.324 26.8929 157.241C29.5588 153.555 32.3566 150.303 34.5521 148.093C34.1918 147.672 33.8017 147.216 33.3992 146.746ZM50.9514 189.614C51.4261 188.96 51.936 188.263 52.4766 187.527C55.4357 183.503 59.2785 178.391 63.2219 173.192C67.1905 167.96 71.2543 162.649 74.61 158.285C78.1399 163.987 81.5308 169.984 83.2457 174.27C72.3217 182.936 60.9288 187.468 50.9514 189.614Z" fill="white"/>
<g style="mix-blend-mode:multiply" opacity="0.5">
<path d="M39.4899 212.248C23.0098 199.552 21.4823 160.393 22.8837 142.505H36.9674C34.877 190.682 45.2602 209.397 49.0961 216.31L49.1593 216.424C46.2164 216.007 40.7511 213.71 39.4899 212.248Z" fill="#CC8F93"/>
<path d="M39.4899 212.248C23.0098 199.552 21.4823 160.393 22.8837 142.505H36.9674C34.877 190.682 45.2602 209.397 49.0961 216.31L49.1593 216.424C46.2164 216.007 40.7511 213.71 39.4899 212.248Z" stroke="black"/>
</g>
</g>
<defs>
<filter id="filter0_i_217_3941" x="19.6188" y="1.16919" width="24.6067" height="118.463" filterUnits="userSpaceOnUse" color-interpolation-filters="sRGB">
<feFlood flood-opacity="0" result="BackgroundImageFix"/>
<feBlend mode="normal" in="SourceGraphic" in2="BackgroundImageFix" result="shape"/>
<feColorMatrix in="SourceAlpha" type="matrix" values="0 0 0 0 0 0 0 0 0 0 0 0 0 0 0 0 0 0 127 0" result="hardAlpha"/>
<feOffset dx="15" dy="5"/>
<feComposite in2="hardAlpha" operator="arithmetic" k2="-1" k3="1"/>
<feColorMatrix type="matrix" values="0 0 0 0 0 0 0 0 0 0 0 0 0 0 0 0 0 0 0.22 0"/>
<feBlend mode="normal" in2="shape" result="effect1_innerShadow_217_3941"/>
</filter>
<filter id="filter1_i_217_3941" x="70.1617" y="14.257" width="27.256" height="123.848" filterUnits="userSpaceOnUse" color-interpolation-filters="sRGB">
<feFlood flood-opacity="0" result="BackgroundImageFix"/>
<feBlend mode="normal" in="SourceGraphic" in2="BackgroundImageFix" result="shape"/>
<feColorMatrix in="SourceAlpha" type="matrix" values="0 0 0 0 0 0 0 0 0 0 0 0 0 0 0 0 0 0 127 0" result="hardAlpha"/>
<feOffset dx="15" dy="5"/>
<feComposite in2="hardAlpha" operator="arithmetic" k2="-1" k3="1"/>
<feColorMatrix type="matrix" values="0 0 0 0 0 0 0 0 0 0 0 0 0 0 0 0 0 0 0.22 0"/>
<feBlend mode="normal" in2="shape" result="effect1_innerShadow_217_3941"/>
</filter>
<filter id="filter2_i_217_3941" x="65.038" y="47.4011" width="45.9562" height="111.153" filterUnits="userSpaceOnUse" color-interpolation-filters="sRGB">
<feFlood flood-opacity="0" result="BackgroundImageFix"/>
<feBlend mode="normal" in="SourceGraphic" in2="BackgroundImageFix" result="shape"/>
<feColorMatrix in="SourceAlpha" type="matrix" values="0 0 0 0 0 0 0 0 0 0 0 0 0 0 0 0 0 0 127 0" result="hardAlpha"/>
<feOffset dx="15" dy="5"/>
<feComposite in2="hardAlpha" operator="arithmetic" k2="-1" k3="1"/>
<feColorMatrix type="matrix" values="0 0 0 0 0 0 0 0 0 0 0 0 0 0 0 0 0 0 0.22 0"/>
<feBlend mode="normal" in2="shape" result="effect1_innerShadow_217_3941"/>
</filter>
<filter id="filter3_i_217_3941" x="10.7642" y="79.0082" width="63.5274" height="100.476" filterUnits="userSpaceOnUse" color-interpolation-filters="sRGB">
<feFlood flood-opacity="0" result="BackgroundImageFix"/>
<feBlend mode="normal" in="SourceGraphic" in2="BackgroundImageFix" result="shape"/>
<feColorMatrix in="SourceAlpha" type="matrix" values="0 0 0 0 0 0 0 0 0 0 0 0 0 0 0 0 0 0 127 0" result="hardAlpha"/>
<feOffset dx="15" dy="5"/>
<feComposite in2="hardAlpha" operator="arithmetic" k2="-1" k3="1"/>
<feColorMatrix type="matrix" values="0 0 0 0 0 0 0 0 0 0 0 0 0 0 0 0 0 0 0.22 0"/>
<feBlend mode="normal" in2="shape" result="effect1_innerShadow_217_3941"/>
</filter>
<filter id="filter4_i_217_3941" x="52.1795" y="55.3162" width="25.5026" height="118.088" filterUnits="userSpaceOnUse" color-interpolation-filters="sRGB">
<feFlood flood-opacity="0" result="BackgroundImageFix"/>
<feBlend mode="normal" in="SourceGraphic" in2="BackgroundImageFix" result="shape"/>
<feColorMatrix in="SourceAlpha" type="matrix" values="0 0 0 0 0 0 0 0 0 0 0 0 0 0 0 0 0 0 127 0" result="hardAlpha"/>
<feOffset dx="15" dy="5"/>
<feComposite in2="hardAlpha" operator="arithmetic" k2="-1" k3="1"/>
<feColorMatrix type="matrix" values="0 0 0 0 0 0 0 0 0 0 0 0 0 0 0 0 0 0 0.22 0"/>
<feBlend mode="normal" in2="shape" result="effect1_innerShadow_217_3941"/>
</filter>
<filter id="filter5_di_217_3941" x="32.8499" y="28.7432" width="37.945" height="126.732" filterUnits="userSpaceOnUse" color-interpolation-filters="sRGB">
<feFlood flood-opacity="0" result="BackgroundImageFix"/>
<feColorMatrix in="SourceAlpha" type="matrix" values="0 0 0 0 0 0 0 0 0 0 0 0 0 0 0 0 0 0 127 0" result="hardAlpha"/>
<feOffset dy="4"/>
<feGaussianBlur stdDeviation="2"/>
<feComposite in2="hardAlpha" operator="out"/>
<feColorMatrix type="matrix" values="0 0 0 0 0 0 0 0 0 0 0 0 0 0 0 0 0 0 0.25 0"/>
<feBlend mode="normal" in2="BackgroundImageFix" result="effect1_dropShadow_217_3941"/>
<feBlend mode="normal" in="SourceGraphic" in2="effect1_dropShadow_217_3941" result="shape"/>
<feColorMatrix in="SourceAlpha" type="matrix" values="0 0 0 0 0 0 0 0 0 0 0 0 0 0 0 0 0 0 127 0" result="hardAlpha"/>
<feOffset dx="13" dy="42"/>
<feComposite in2="hardAlpha" operator="arithmetic" k2="-1" k3="1"/>
<feColorMatrix type="matrix" values="0 0 0 0 0 0 0 0 0 0 0 0 0 0 0 0 0 0 0.25 0"/>
<feBlend mode="normal" in2="shape" result="effect2_innerShadow_217_3941"/>
</filter>
</defs>
</svg>
