<svg width="282" height="202" viewBox="0 0 282 202" fill="none" xmlns="http://www.w3.org/2000/svg">
<g clip-path="url(#clip0_257_3477)">
<path d="M160.671 23.8119C146.764 23.3316 133.517 18.8656 120.869 13.9794C108.22 9.0933 95.6912 3.67986 82.1165 1.09077C73.3855 -0.574484 63.4009 -0.810095 56.3659 3.84624C49.5961 8.32702 47.4087 16.0618 46.2326 23.2387C45.3478 28.6383 44.8275 34.3213 47.252 39.3763C48.9352 42.8858 51.9239 45.8358 53.9906 49.1974C61.1822 60.8943 56.0991 75.3179 48.3057 86.7389C44.6499 92.0963 40.4095 97.2073 37.5885 102.91C34.7675 108.613 33.4625 115.148 35.9306 120.966C38.377 126.732 44.2069 131.063 50.5221 134.11C63.3485 140.297 78.4631 142.068 93.2018 143.071C125.828 145.291 158.628 144.33 191.34 143.367C203.446 143.011 215.606 142.65 227.515 140.788C234.129 139.754 240.957 138.112 245.758 134.15C251.853 129.121 253.364 120.604 249.28 114.297C242.429 103.719 223.487 101.091 218.698 89.7384C216.063 83.4893 218.769 76.5286 222.6 70.733C230.817 58.3003 244.59 47.393 245.315 33.1822C245.813 23.422 239.193 13.6474 228.955 9.02946C218.224 4.18893 203.344 4.79782 195.428 12.8105C187.276 21.0613 172.951 24.236 160.671 23.8119Z" fill="#F5F6FA"/>
</g>
<defs>
<clipPath id="clip0_257_3477">
<rect width="281.493" height="202" fill="white" transform="translate(0.250732)"/>
</clipPath>
</defs>
</svg>
